# xmcd CD Database Entry
#
# Track frame offsets:
# 150
# 14150
# 32427
# 50552
# 71155
# 90015
# 114277
# 131070
# 152677
# 169685
# 197680
# 214280
# 232530
# 251297
# 267072
# 283567
# 297537
# 316115
#
# Disc length: 4459 seconds
#
# Revision: 4
# Processed by: cddbd v1.4PL0 Copyright (c) Steve Scherf et al.
# Submitted via: tcd 2.0b
#
DISCID=f2116912
DTITLE=Les Inrockuptibles - un printemps 99
DYEAR=1900
DGENRE=
TTITLE0=Lee Hazlewood - the night before
TTITLE1=Tom Waits - big in Japan
TTITLE2=Patrice - wonder
TTITLE3=Keziah Jones - phased
TTITLE4=Moby - natural blues
TTITLE5=Rhinoceros - 323 s
TTITLE6=Jim O'Rourke - ghost ship in storm
TTITLE7=Luna - superfreaky memories
TTITLE8=Pavement - cream of gold
TTITLE9=Deus - instant street
TTITLE10=The Chemical Brothers - scale
TTITLE11=Craig Armstrong - houses in motion
TTITLE12=The Roots - the next movement
TTITLE13=Prince Paul - weapon world
TTITLE14=Teemour - millenium
TTITLE15=Etienne Charry - rayé du bottin
TTITLE16=Curtis - superstar dog
TTITLE17=Orbital - style
EXTD=
EXTT0=
EXTT1=
EXTT2=
EXTT3=
EXTT4=
EXTT5=
EXTT6=
EXTT7=
EXTT8=
EXTT9=
EXTT10=
EXTT11=
EXTT12=
EXTT13=
EXTT14=
EXTT15=
EXTT16=
EXTT17=
PLAYORDER=
